<svg xmlns="http://www.w3.org/2000/svg" viewBox="0 0 1600 1200" role="img" aria-label="日落拼贴">
  <defs>
    <linearGradient id="sky" x1="0" y1="0" x2="0" y2="1">
      <stop offset="0" stop-color="#1e1e2e"/>
      <stop offset="0.35" stop-color="#45475a"/>
      <stop offset="0.6" stop-color="#f5c2e7"/>
      <stop offset="0.78" stop-color="#fab387"/>
      <stop offset="1" stop-color="#f9e2af"/>
    </linearGradient>
    <linearGradient id="sea" x1="0" y1="0" x2="0" y2="1">
      <stop offset="0" stop-color="#f9e2af"/>
      <stop offset="0.25" stop-color="#fab387"/>
      <stop offset="0.6" stop-color="#eba0ac"/>
      <stop offset="1" stop-color="#11111b"/>
    </linearGradient>
  </defs>
  <rect width="1600" height="760" fill="url(#sky)"/>
  <circle cx="800" cy="700" r="170" fill="#f9e2af"/>
  <circle cx="800" cy="700" r="118" fill="#fff5e0"/>
  <rect y="760" width="1600" height="440" fill="url(#sea)"/>
  <g fill="#f9e2af" opacity="0.8">
    <rect x="740" y="800" width="120" height="10" rx="5"/>
    <rect x="712" y="840" width="176" height="10" rx="5" opacity="0.7"/>
    <rect x="748" y="884" width="104" height="9" rx="4.5" opacity="0.55"/>
    <rect x="772" y="926" width="56" height="8" rx="4" opacity="0.4"/>
    <rect x="788" y="964" width="24" height="7" rx="3.5" opacity="0.3"/>
  </g>
  <g fill="#11111b">
    <rect y="726" width="230" height="34"/>
    <rect y="726" width="230" height="10"/>
    <rect x="1330" y="712" width="270" height="48"/>
    <rect x="1330" y="712" width="270" height="12"/>
    <rect x="1420" y="640" width="7" height="74"/>
    <circle cx="1423" cy="634" r="7"/>
  </g>
  <g fill="#11111b" opacity="0.9">
    <path d="M180 300 q18 -22 36 0 q18 -22 36 0 l0 10 l-72 0 z"/>
    <path d="M1240 220 q14 -18 28 0 q14 -18 28 0 l0 8 l-56 0 z"/>
    <path d="M1150 170 q11 -14 22 0 q11 -14 22 0 l0 7 l-44 0 z"/>
  </g>
  <g fill="#f5c2e7">
    <circle cx="300" cy="140" r="3"/>
    <circle cx="480" cy="90" r="2.4"/>
    <circle cx="1080" cy="120" r="2.8"/>
    <circle cx="1360" cy="320" r="2.4"/>
    <circle cx="560" cy="240" r="2"/>
    <circle cx="960" cy="80" r="2.2"/>
  </g>
</svg>
